$MeshFormat
4.1 0 8
$EndMeshFormat
$Entities
4 4 2 1
1 -5 -5 0 0 
2 100 -5 0 0 
3 100 35 0 0 
4 -5 35 0 0 
1 -5 -5 38.92399979 -5 35 41.61299896 0 2 1 -2 
2 0 0 0 0 0 0 0 2 2 -3 
3 40 -5 38.63399887 40 35 41.4707774990415 0 2 3 -4 
4 -5 -5 36.58300018 100 -5 39.4469986 0 2 4 -1 
1 -5 -5 36.58300018 100 35 41.62288850922283 0 4 1 2 3 4 
6 0 0 0 0 0 0 0 0 
1 -1.797693134862316e+308 -1.797693134862316e+308 -1.797693134862316e+308 1.797693134862316e+308 1.797693134862316e+308 1.797693134862316e+308 0 2 -1 6 
$EndEntities
$Nodes
11 202 1 202
0 1 0 1
1
-5 -5 0
0 2 0 1
2
100 -5 0
0 3 0 1
3
100 35 0
0 4 0 1
4
-5 35 0
1 1 0 0
1 2 0 0
1 3 0 0
1 4 0 0
2 1 0 198
5
6
7
8
9
10
11
12
13
14
15
16
17
18
19
20
21
22
23
24
25
26
27
28
29
30
31
32
33
34
35
36
37
38
39
40
41
42
43
44
45
46
47
48
49
50
51
52
53
54
55
56
57
58
59
60
61
62
63
64
65
66
67
68
69
70
71
72
73
74
75
76
77
78
79
80
81
82
83
84
85
86
87
88
89
90
91
92
93
94
95
96
97
98
99
100
101
102
103
104
105
106
107
108
109
110
111
112
113
114
115
116
117
118
119
120
121
122
123
124
125
126
127
128
129
130
131
132
133
134
135
136
137
138
139
140
141
142
143
144
145
146
147
148
149
150
151
152
153
154
155
156
157
158
159
160
161
162
163
164
165
166
167
168
169
170
171
172
173
174
175
176
177
178
179
180
181
182
183
184
185
186
187
188
189
190
191
192
193
194
195
196
197
198
199
200
201
202
-5 -5 38.92399979
0 -5 39.02399826
5 -5 39.19156203255357
10 -5 39.40499878
15 -5 39.43123552914191
20 -5 39.4469986
25 -5 39.20199966
30 -5 39.0530014
35 -5 38.82400131
40 -5 38.63399887
45 -5 38.60599899
50 -5 38.45059391820607
55 -5 38.76300049
60 -5 38.95552025226446
65 -5 38.56600189
70 -5 38.23099899
75 -5 38.23199844
80 -5 37.73199844
85 -5 37.52099991
90 -5 37.27600098
95 -5 36.91749649486101
100 -5 36.58300018
-5 0 39.01036846705168
0 0 39.1111915948936
5 0 39.40991352416184
10 0 39.49512085579835
15 0 39.36604519831378
20 0 39.5502344233178
25 0 39.59373071385212
30 0 39.36453272324106
35 0 39.23395178914086
40 0 38.95819915635499
45 0 39.19990767724219
50 0 39.1163224500726
55 0 39.18510886393989
60 0 39.12843493144695
65 0 38.93450672982965
70 0 38.22925285994875
75 0 38.10895915552182
80 0 38.10072946877528
85 0 37.97839278021237
90 0 37.95606776555378
95 0 37.78215415730374
100 0 37.81800079
-5 5 39.63800049
0 5 39.31481887120522
5 5 39.374276984791
10 5 39.39935412188767
15 5 39.43386396843785
20 5 39.42919319297953
25 5 39.5149694201204
30 5 39.46522231741285
35 5 39.58146093845485
40 5 39.55994231543592
45 5 39.63625858593596
50 5 39.56395936694534
55 5 39.50438294086533
60 5 39.3223088105581
65 5 39.1757760350324
70 5 39.07630688322204
75 5 38.89731787797737
80 5 38.81954977914036
85 5 38.96878955467807
90 5 38.76249176257276
95 5 38.74250817469893
100 5 38.82899857
-5 10 39.40800095
0 10 39.39167921859972
5 10 39.35940929196349
10 10 39.32739733387851
15 10 39.27273251152773
20 10 39.25776911273474
25 10 39.32767420138914
30 10 39.40013554651028
35 10 39.47708433107295
40 10 39.45508446779586
45 10 39.44370563970159
50 10 39.39287782759178
55 10 39.27458140749603
60 10 39.13110043172172
65 10 39.0376190687828
70 10 39.02333771609618
75 10 39.05589379506114
80 10 39.00764743414423
85 10 38.96692708826958
90 10 38.96073029524388
95 10 38.94062176600762
100 10 38.88100052
-5 15 41.08300018
0 15 41.10352621760703
5 15 41.07022901396813
10 15 41.02391359249573
15 15 40.91922220662919
20 15 40.85645956429461
25 15 40.85489417861166
30 15 40.89249409451251
35 15 40.86153443499767
40 15 40.84388083125187
45 15 40.69491556706525
50 15 40.53925639096032
55 15 40.46467770189032
60 15 40.45096607200706
65 15 40.41300507656874
70 15 40.33147314230777
75 15 40.27567237279352
80 15 40.12794663740954
85 15 40.16953364628875
90 15 40.20867848438873
95 15 40.1923346759264
100 15 40.31399918
-5 20 41.61299896
0 20 41.62288850922283
5 20 41.55678515814784
10 20 41.55745045949865
15 20 41.55577713604376
20 20 41.51192010513236
25 20 41.51332747855482
30 20 41.54849003331673
35 20 41.49998612504942
40 20 41.4707774990415
45 20 41.50940807730021
50 20 41.5580863387769
55 20 41.55204508941861
60 20 41.49387821475315
65 20 41.53654449162892
70 20 41.48653779850682
75 20 41.4944615809877
80 20 41.47126828154457
85 20 41.48471324274858
90 20 41.46390990410954
95 20 41.44816634924168
100 20 41.43500137
-5 25 40.17499924
0 25 40.13941794523775
5 25 40.12564136405165
10 25 40.08729763076158
15 25 40.10947136075521
20 25 40.16000527258552
25 25 40.12118408608956
30 25 40.17016867370791
35 25 40.19918628736789
40 25 40.27730613004366
45 25 40.27357585576222
50 25 40.31984694017319
55 25 40.33877003624271
60 25 40.31669132404304
65 25 40.29433376081641
70 25 40.32975361970733
75 25 40.3272509119365
80 25 40.38622623353037
85 25 40.37332803954676
90 25 40.37099789964456
95 25 40.39865982973439
100 25 40.33399963
-5 30 39.19100189
0 30 39.16402562687941
5 30 39.06143301256058
10 30 39.12839996287033
15 30 38.96213463666614
20 30 38.88380468690095
25 30 38.76234355367309
30 30 38.71950505164786
35 30 38.71621436483534
40 30 38.73075793720211
45 30 38.78596273751933
50 30 38.73828010354662
55 30 38.67288364784838
60 30 38.54311651783755
65 30 38.64138566284197
70 30 38.72353823146239
75 30 38.69379593300808
80 30 38.71694233078823
85 30 38.7085696606453
90 30 38.75514054873091
95 30 38.80335392899474
100 30 38.82600021
-5 35 39.06999969
0 35 39.03779978880227
5 35 38.98766432920625
10 35 38.92910124651465
15 35 38.91532880543864
20 35 38.85599899
25 35 38.84448879556788
30 35 38.78618619925797
35 35 38.703896508251
40 35 38.67300034
45 35 38.62283338359511
50 35 38.58383216011616
55 35 38.55606990833925
60 35 38.54160781767715
65 35 38.56394704386792
70 35 38.59645102634818
75 35 38.58440814596879
80 35 38.57257342471707
85 35 38.57829277468637
90 35 38.64444209369064
95 35 38.71999438425297
100 35 38.81000137
2 6 0 0
3 1 0 0
$EndNodes
$Elements
8 377 1 377
0 1 15 1
1 1 
0 2 15 1
2 2 
0 3 15 1
3 3 
0 4 15 1
4 4 
1 1 1 8
5 5 27 
6 27 49 
7 49 71 
8 71 93 
9 93 115 
10 115 137 
11 137 159 
12 159 181 
1 3 1 8
13 14 36 
14 36 58 
15 58 80 
16 80 102 
17 102 124 
18 124 146 
19 146 168 
20 168 190 
1 4 1 21
21 5 6 
22 6 7 
23 7 8 
24 8 9 
25 9 10 
26 10 11 
27 11 12 
28 12 13 
29 13 14 
30 14 15 
31 15 16 
32 16 17 
33 17 18 
34 18 19 
35 19 20 
36 20 21 
37 21 22 
38 22 23 
39 23 24 
40 24 25 
41 25 26 
2 1 2 336
42 5 27 6 
43 27 28 6 
44 6 28 7 
45 28 29 7 
46 7 29 8 
47 29 30 8 
48 8 30 9 
49 30 31 9 
50 9 31 10 
51 31 32 10 
52 10 32 11 
53 32 33 11 
54 11 33 12 
55 33 34 12 
56 12 34 13 
57 34 35 13 
58 13 35 14 
59 35 36 14 
60 14 36 15 
61 36 37 15 
62 15 37 16 
63 37 38 16 
64 16 38 17 
65 38 39 17 
66 17 39 18 
67 39 40 18 
68 18 40 19 
69 40 41 19 
70 19 41 20 
71 41 42 20 
72 20 42 21 
73 42 43 21 
74 21 43 22 
75 43 44 22 
76 22 44 23 
77 44 45 23 
78 23 45 24 
79 45 46 24 
80 24 46 25 
81 46 47 25 
82 25 47 26 
83 47 48 26 
84 27 49 28 
85 49 50 28 
86 28 50 29 
87 50 51 29 
88 29 51 30 
89 51 52 30 
90 30 52 31 
91 52 53 31 
92 31 53 32 
93 53 54 32 
94 32 54 33 
95 54 55 33 
96 33 55 34 
97 55 56 34 
98 34 56 35 
99 56 57 35 
100 35 57 36 
101 57 58 36 
102 36 58 37 
103 58 59 37 
104 37 59 38 
105 59 60 38 
106 38 60 39 
107 60 61 39 
108 39 61 40 
109 61 62 40 
110 40 62 41 
111 62 63 41 
112 41 63 42 
113 63 64 42 
114 42 64 43 
115 64 65 43 
116 43 65 44 
117 65 66 44 
118 44 66 45 
119 66 67 45 
120 45 67 46 
121 67 68 46 
122 46 68 47 
123 68 69 47 
124 47 69 48 
125 69 70 48 
126 49 71 50 
127 71 72 50 
128 50 72 51 
129 72 73 51 
130 51 73 52 
131 73 74 52 
132 52 74 53 
133 74 75 53 
134 53 75 54 
135 75 76 54 
136 54 76 55 
137 76 77 55 
138 55 77 56 
139 77 78 56 
140 56 78 57 
141 78 79 57 
142 57 79 58 
143 79 80 58 
144 58 80 59 
145 80 81 59 
146 59 81 60 
147 81 82 60 
148 60 82 61 
149 82 83 61 
150 61 83 62 
151 83 84 62 
152 62 84 63 
153 84 85 63 
154 63 85 64 
155 85 86 64 
156 64 86 65 
157 86 87 65 
158 65 87 66 
159 87 88 66 
160 66 88 67 
161 88 89 67 
162 67 89 68 
163 89 90 68 
164 68 90 69 
165 90 91 69 
166 69 91 70 
167 91 92 70 
168 71 93 72 
169 93 94 72 
170 72 94 73 
171 94 95 73 
172 73 95 74 
173 95 96 74 
174 74 96 75 
175 96 97 75 
176 75 97 76 
177 97 98 76 
178 76 98 77 
179 98 99 77 
180 77 99 78 
181 99 100 78 
182 78 100 79 
183 100 101 79 
184 79 101 80 
185 101 102 80 
186 80 102 81 
187 102 103 81 
188 81 103 82 
189 103 104 82 
190 82 104 83 
191 104 105 83 
192 83 105 84 
193 105 106 84 
194 84 106 85 
195 106 107 85 
196 85 107 86 
197 107 108 86 
198 86 108 87 
199 108 109 87 
200 87 109 88 
201 109 110 88 
202 88 110 89 
203 110 111 89 
204 89 111 90 
205 111 112 90 
206 90 112 91 
207 112 113 91 
208 91 113 92 
209 113 114 92 
210 93 115 94 
211 115 116 94 
212 94 116 95 
213 116 117 95 
214 95 117 96 
215 117 118 96 
216 96 118 97 
217 118 119 97 
218 97 119 98 
219 119 120 98 
220 98 120 99 
221 120 121 99 
222 99 121 100 
223 121 122 100 
224 100 122 101 
225 122 123 101 
226 101 123 102 
227 123 124 102 
228 102 124 103 
229 124 125 103 
230 103 125 104 
231 125 126 104 
232 104 126 105 
233 126 127 105 
234 105 127 106 
235 127 128 106 
236 106 128 107 
237 128 129 107 
238 107 129 108 
239 129 130 108 
240 108 130 109 
241 130 131 109 
242 109 131 110 
243 131 132 110 
244 110 132 111 
245 132 133 111 
246 111 133 112 
247 133 134 112 
248 112 134 113 
249 134 135 113 
250 113 135 114 
251 135 136 114 
252 115 137 116 
253 137 138 116 
254 116 138 117 
255 138 139 117 
256 117 139 118 
257 139 140 118 
258 118 140 119 
259 140 141 119 
260 119 141 120 
261 141 142 120 
262 120 142 121 
263 142 143 121 
264 121 143 122 
265 143 144 122 
266 122 144 123 
267 144 145 123 
268 123 145 124 
269 145 146 124 
270 124 146 125 
271 146 147 125 
272 125 147 126 
273 147 148 126 
274 126 148 127 
275 148 149 127 
276 127 149 128 
277 149 150 128 
278 128 150 129 
279 150 151 129 
280 129 151 130 
281 151 152 130 
282 130 152 131 
283 152 153 131 
284 131 153 132 
285 153 154 132 
286 132 154 133 
287 154 155 133 
288 133 155 134 
289 155 156 134 
290 134 156 135 
291 156 157 135 
292 135 157 136 
293 157 158 136 
294 137 159 138 
295 159 160 138 
296 138 160 139 
297 160 161 139 
298 139 161 140 
299 161 162 140 
300 140 162 141 
301 162 163 141 
302 141 163 142 
303 163 164 142 
304 142 164 143 
305 164 165 143 
306 143 165 144 
307 165 166 144 
308 144 166 145 
309 166 167 145 
310 145 167 146 
311 167 168 146 
312 146 168 147 
313 168 169 147 
314 147 169 148 
315 169 170 148 
316 148 170 149 
317 170 171 149 
318 149 171 150 
319 171 172 150 
320 150 172 151 
321 172 173 151 
322 151 173 152 
323 173 174 152 
324 152 174 153 
325 174 175 153 
326 153 175 154 
327 175 176 154 
328 154 176 155 
329 176 177 155 
330 155 177 156 
331 177 178 156 
332 156 178 157 
333 178 179 157 
334 157 179 158 
335 179 180 158 
336 159 181 160 
337 181 182 160 
338 160 182 161 
339 182 183 161 
340 161 183 162 
341 183 184 162 
342 162 184 163 
343 184 185 163 
344 163 185 164 
345 185 186 164 
346 164 186 165 
347 186 187 165 
348 165 187 166 
349 187 188 166 
350 166 188 167 
351 188 189 167 
352 167 189 168 
353 189 190 168 
354 168 190 169 
355 190 191 169 
356 169 191 170 
357 191 192 170 
358 170 192 171 
359 192 193 171 
360 171 193 172 
361 193 194 172 
362 172 194 173 
363 194 195 173 
364 173 195 174 
365 195 196 174 
366 174 196 175 
367 196 197 175 
368 175 197 176 
369 197 198 176 
370 176 198 177 
371 198 199 177 
372 177 199 178 
373 199 200 178 
374 178 200 179 
375 200 201 179 
376 179 201 180 
377 201 202 180 
$EndElements
